<?xml version="1.0" standalone="no"?>
<!DOCTYPE svg PUBLIC "-//W3C//DTD SVG 20010904//EN"
 "http://www.w3.org/TR/2001/REC-SVG-20010904/DTD/svg10.dtd">
<svg version="1.0" xmlns="http://www.w3.org/2000/svg"
 width="1000.000000pt" height="1000.000000pt" viewBox="0 0 1000.000000 1000.000000"
 preserveAspectRatio="xMidYMid meet">
<metadata>
Created by potrace 1.14, written by Peter Selinger 2001-2017
</metadata>
<g transform="translate(0.000000,1000.000000) scale(0.100000,-0.100000)"
fill="#000000" stroke="none">
<path d="M4758 9765 c-1 -2 -56 -6 -122 -10 -65 -4 -127 -8 -137 -10 -10 -2
-49 -7 -86 -10 -37 -4 -77 -9 -88 -11 -10 -2 -35 -6 -55 -9 -20 -3 -45 -7 -55
-9 -11 -2 -40 -7 -65 -12 -25 -4 -47 -8 -50 -9 -3 -1 -25 -5 -50 -10 -57 -11
-52 -10 -75 -17 -11 -4 -36 -9 -55 -12 -19 -3 -84 -19 -145 -36 -60 -17 -114
-32 -120 -34 -73 -20 -123 -36 -253 -82 -139 -50 -183 -67 -309 -125 -24 -10
-46 -19 -49 -19 -15 0 -337 -167 -449 -233 -221 -129 -491 -321 -681 -482
-415 -353 -822 -849 -1079 -1316 -69 -126 -230 -459 -239 -494 -2 -5 -7 -19
-11 -30 -101 -250 -227 -662 -250 -820 -4 -22 -10 -56 -15 -75 -5 -19 -12 -55
-15 -80 -5 -40 -10 -74 -21 -135 -2 -11 -7 -45 -10 -75 -3 -30 -7 -66 -10 -80
-27 -159 -26 -945 1 -1074 2 -12 7 -43 10 -71 25 -206 89 -514 151 -723 45
-152 127 -388 159 -459 8 -17 15 -34 15 -37 0 -8 46 -108 125 -271 92 -189
173 -330 320 -555 36 -54 164 -231 192 -265 5 -5 26 -32 48 -60 238 -299 552
-604 867 -838 101 -75 245 -175 290 -202 9 -5 75 -45 146 -87 503 -300 1116
-517 1697 -602 22 -4 54 -8 70 -11 47 -7 122 -16 215 -25 108 -11 782 -10 875
1 220 27 229 28 360 50 561 94 1146 309 1621 595 206 123 514 340 622 438 21
18 82 73 137 122 155 137 350 339 461 474 16 19 31 37 35 40 3 3 49 61 101
130 283 371 510 778 670 1200 22 58 48 128 58 155 63 169 154 533 190 761 6
38 13 80 15 94 3 14 7 50 10 80 4 30 8 66 10 80 17 110 25 291 25 545 -1 245
-6 343 -26 530 -5 50 -7 65 -19 140 -3 22 -7 54 -10 70 -6 44 -32 183 -44 235
-5 25 -12 56 -14 70 -3 14 -15 63 -27 110 -266 1045 -870 1960 -1730 2621
-122 94 -379 268 -450 304 -19 10 -37 21 -40 24 -11 14 -306 168 -420 219
-442 198 -889 326 -1355 389 -22 2 -51 6 -65 8 -14 2 -54 7 -90 10 -36 3 -85
8 -110 11 -54 6 -597 14 -602 9z"/>
</g>
</svg>
